<svg width="189" height="335" viewBox="0 0 189 335" fill="none" xmlns="http://www.w3.org/2000/svg">
<g id="iphonex">
<mask id="mask0" mask-type="alpha" maskUnits="userSpaceOnUse" x="0" y="0" width="189" height="335">
<path id="mask" fill-rule="evenodd" clip-rule="evenodd" d="M189 0.5H0V334.5H189V0.5ZM58.1739 29.8429V26.5H44.1988C36.9093 26.5 31 32.3715 31 39.6143V283.386C31 290.629 36.9093 296.5 44.1988 296.5H142.801C150.091 296.5 156 290.629 156 283.386V39.6143C156 32.3715 150.091 26.5 142.801 26.5H128.05V29.8429C128.05 33.3933 125.153 36.2714 121.58 36.2714H64.6439C61.0706 36.2714 58.1739 33.3933 58.1739 29.8429Z" fill="white"/>
</mask>
<g mask="url(#mask0)">
<g id="iphonex_2" filter="url(#filter0_d)">
<g id="shadows">
<g id="Rectangle 5" opacity="0.8" filter="url(#filter1_f)">
<rect width="118.345" height="2.95862" transform="matrix(1 0 0 -1 33.8345 303.514)" fill="url(#paint0_linear)"/>
</g>
<g id="Rectangle 5_2" filter="url(#filter2_f)">
<rect x="22.9862" y="304.408" width="118.345" height="1.18382" fill="url(#paint1_linear)"/>
</g>
<g id="Rectangle 5_3" filter="url(#filter3_f)">
<rect width="118.345" height="1.18382" transform="matrix(-1 0 0 1 162.041 304.408)" fill="url(#paint2_linear)"/>
</g>
<g id="Rectangle 8" opacity="0.05" filter="url(#filter4_f)">
<rect x="33.8345" y="282.803" width="117.359" height="34.9227" rx="17.4613" fill="black"/>
</g>
</g>
<g id="shell">
<g id="Path" filter="url(#filter5_i)">
<path fill-rule="evenodd" clip-rule="evenodd" d="M164.231 117.412V283.448C164.231 295.075 154.806 304.5 143.179 304.5H43.8207C32.1941 304.5 22.7688 295.075 22.7688 283.448V124.057H22V103.61H22.7688V97.987H22V77.5402H22.7688V67.828H22V57.349H22.7688V39.5519C22.7688 27.9253 32.1941 18.5 43.8207 18.5L143.179 18.5C154.806 18.5 164.231 27.9253 164.231 39.5519V84.6966H165V117.412H164.231Z" fill="url(#paint3_linear)"/>
</g>
<g id="mic" filter="url(#filter6_i)">
<rect x="85.1172" y="28.3621" width="17.1703" height="2.30027" rx="1.15013" fill="black" fill-opacity="0.01"/>
</g>
</g>
</g>
</g>
</g>
<defs>
<filter id="filter0_d" x="0" y="-7.5" width="187" height="343.226" filterUnits="userSpaceOnUse" color-interpolation-filters="sRGB">
<feFlood flood-opacity="0" result="BackgroundImageFix"/>
<feColorMatrix in="SourceAlpha" type="matrix" values="0 0 0 0 0 0 0 0 0 0 0 0 0 0 0 0 0 0 127 0"/>
<feOffset dy="-4"/>
<feGaussianBlur stdDeviation="11"/>
<feColorMatrix type="matrix" values="0 0 0 0 0 0 0 0 0 0 0 0 0 0 0 0 0 0 0.03 0"/>
<feBlend mode="normal" in2="BackgroundImageFix" result="effect1_dropShadow"/>
<feBlend mode="normal" in="SourceGraphic" in2="effect1_dropShadow" result="shape"/>
</filter>
<filter id="filter1_f" x="27.0391" y="293.76" width="131.936" height="16.5494" filterUnits="userSpaceOnUse" color-interpolation-filters="sRGB">
<feFlood flood-opacity="0" result="BackgroundImageFix"/>
<feBlend mode="normal" in="SourceGraphic" in2="BackgroundImageFix" result="shape"/>
<feGaussianBlur stdDeviation="3.3977" result="effect1_foregroundBlur"/>
</filter>
<filter id="filter2_f" x="16.1908" y="297.613" width="131.936" height="14.7746" filterUnits="userSpaceOnUse" color-interpolation-filters="sRGB">
<feFlood flood-opacity="0" result="BackgroundImageFix"/>
<feBlend mode="normal" in="SourceGraphic" in2="BackgroundImageFix" result="shape"/>
<feGaussianBlur stdDeviation="3.3977" result="effect1_foregroundBlur"/>
</filter>
<filter id="filter3_f" x="36.9011" y="297.613" width="131.936" height="14.7746" filterUnits="userSpaceOnUse" color-interpolation-filters="sRGB">
<feFlood flood-opacity="0" result="BackgroundImageFix"/>
<feBlend mode="normal" in="SourceGraphic" in2="BackgroundImageFix" result="shape"/>
<feGaussianBlur stdDeviation="3.3977" result="effect1_foregroundBlur"/>
</filter>
<filter id="filter4_f" x="17.5248" y="266.494" width="149.978" height="67.5421" filterUnits="userSpaceOnUse" color-interpolation-filters="sRGB">
<feFlood flood-opacity="0" result="BackgroundImageFix"/>
<feBlend mode="normal" in="SourceGraphic" in2="BackgroundImageFix" result="shape"/>
<feGaussianBlur stdDeviation="8.15485" result="effect1_foregroundBlur"/>
</filter>
<filter id="filter5_i" x="22" y="15.5" width="143" height="289" filterUnits="userSpaceOnUse" color-interpolation-filters="sRGB">
<feFlood flood-opacity="0" result="BackgroundImageFix"/>
<feBlend mode="normal" in="SourceGraphic" in2="BackgroundImageFix" result="shape"/>
<feColorMatrix in="SourceAlpha" type="matrix" values="0 0 0 0 0 0 0 0 0 0 0 0 0 0 0 0 0 0 127 0" result="hardAlpha"/>
<feOffset dy="-3"/>
<feGaussianBlur stdDeviation="6"/>
<feComposite in2="hardAlpha" operator="arithmetic" k2="-1" k3="1"/>
<feColorMatrix type="matrix" values="0 0 0 0 0.464366 0 0 0 0 0.519284 0 0 0 0 0.587931 0 0 0 0.28626 0"/>
<feBlend mode="normal" in2="shape" result="effect1_innerShadow"/>
</filter>
<filter id="filter6_i" x="85.1172" y="28.3621" width="17.1703" height="2.30027" filterUnits="userSpaceOnUse" color-interpolation-filters="sRGB">
<feFlood flood-opacity="0" result="BackgroundImageFix"/>
<feBlend mode="normal" in="SourceGraphic" in2="BackgroundImageFix" result="shape"/>
<feColorMatrix in="SourceAlpha" type="matrix" values="0 0 0 0 0 0 0 0 0 0 0 0 0 0 0 0 0 0 127 0" result="hardAlpha"/>
<feOffset/>
<feGaussianBlur stdDeviation="0.5"/>
<feComposite in2="hardAlpha" operator="arithmetic" k2="-1" k3="1"/>
<feColorMatrix type="matrix" values="0 0 0 0 0.464366 0 0 0 0 0.519284 0 0 0 0 0.587931 0 0 0 0.28626 0"/>
<feBlend mode="normal" in2="shape" result="effect1_innerShadow"/>
</filter>
<linearGradient id="paint0_linear" x1="115.655" y1="0.0336207" x2="0" y2="0.0336207" gradientUnits="userSpaceOnUse">
<stop stop-opacity="0.01"/>
<stop offset="0.142119"/>
<stop offset="0.490956"/>
<stop offset="0.852713"/>
<stop offset="1" stop-opacity="0.01"/>
</linearGradient>
<linearGradient id="paint1_linear" x1="138.641" y1="304.422" x2="22.9862" y2="304.422" gradientUnits="userSpaceOnUse">
<stop stop-color="white" stop-opacity="0.01"/>
<stop offset="0.852713"/>
<stop offset="1" stop-opacity="0.01"/>
</linearGradient>
<linearGradient id="paint2_linear" x1="115.655" y1="0.0134525" x2="0" y2="0.0134525" gradientUnits="userSpaceOnUse">
<stop stop-color="white" stop-opacity="0.01"/>
<stop offset="0.852713"/>
<stop offset="1" stop-opacity="0.01"/>
</linearGradient>
<linearGradient id="paint3_linear" x1="-2.13698" y1="43.7503" x2="90.2272" y2="301.221" gradientUnits="userSpaceOnUse">
<stop stop-color="#F4F7FA"/>
<stop offset="1" stop-color="#ECEEF1"/>
</linearGradient>
</defs>
</svg>
