<svg width="126" height="32" viewBox="0 0 126 32" fill="none" xmlns="http://www.w3.org/2000/svg">
<path d="M12.5393 2.71971C13.1326 2.71971 13.6478 2.47899 14.1319 1.75732L14.4132 1.93361C14.179 2.71947 14.0853 3.79395 14.0853 4.96448C14.0853 6.35967 14.1634 7.46625 14.5382 11.3153H14.3351C13.1014 4.724 11.2121 1.88547 8.07355 1.88547C5.30976 1.88547 2.62385 3.72976 2.62385 6.40805C2.62385 8.42887 3.54527 9.90431 5.29413 10.7381C7.7769 11.9088 9.72865 12.2614 12.4612 13.705C14.6317 14.8595 15.6154 16.8482 15.6154 18.869C15.6154 22.1406 13.0857 25.5243 9.02599 25.5243C8.52621 25.5243 8.01081 25.4764 7.48002 25.364C5.98094 25.0433 4.59123 23.9046 3.42027 23.9046C2.73323 23.9046 2.12408 24.2575 1.60892 25.428L1.3279 25.2835C1.56204 24.4977 1.65579 23.4393 1.65579 22.2527C1.65579 20.8412 1.5779 19.8312 1.20313 15.9018H1.40602C2.40533 21.2263 4.65373 24.6745 7.51127 25.2677C8.05792 25.3798 8.52645 25.428 9.02599 25.428C12.2896 25.428 14.5067 23.2309 14.5067 20.9054C14.5067 19.6065 13.8197 18.2434 12.2114 17.201C9.86928 15.6774 4.41982 14.4427 2.79573 13.1756C1.62454 12.2614 1 10.5136 1 8.73354C1 4.93262 4.20107 1.78942 8.07355 1.78942C10.0255 1.78942 11.4152 2.71971 12.5393 2.71971Z" fill="black" stroke="black" stroke-width="0.529615"/>
<path d="M38.4529 20.45C34.809 21.4375 32.3799 22.7044 29.6393 25.041L29.6549 25.074C31.1187 24.2185 32.0841 23.8892 33.1585 23.8892C33.9216 23.8892 34.809 24.0538 35.8991 24.4488C36.7089 24.7449 37.3784 24.8764 37.9545 24.8764C39.2625 24.8764 40.0411 24.3826 41.5358 22.6388L41.7693 22.7702C40.8351 25.074 39.8697 26.3575 38.5927 27.1474C37.8452 27.6082 37.0198 27.822 36.1479 27.8385C35.1981 27.8222 34.2013 27.5917 33.096 27.1147C32.1615 26.7033 30.8382 25.9955 29.5923 25.9955C29.0007 25.9955 28.44 26.1602 27.9416 26.6045L22.6628 31.2611L22.616 31.1953L24.9517 29.0891C26.618 27.5753 27.3809 26.5716 27.3809 25.897C27.3809 25.535 27.1318 25.288 26.6022 25.173C21.6355 24.0865 18.6924 19.8578 18.6924 13.8023C18.6924 6.85824 23.2237 1.75732 29.3746 1.75732C35.5253 1.75732 40.0569 6.85824 40.0569 13.8023C40.0569 16.5504 39.4494 18.6401 38.4529 20.45ZM26.6806 25.0408C27.1943 25.156 27.6927 25.2217 28.1755 25.2217C28.8607 25.2217 29.3435 25.0735 29.717 24.7279L31.2431 23.3952C35.4786 19.7423 36.5063 17.8664 36.5063 13.8021C36.5063 5.27828 34.4665 1.85587 29.3744 1.85587C24.2824 1.85587 22.2425 5.27852 22.2425 13.8021C22.2427 20.7462 23.6909 24.3662 26.6806 25.0408Z" fill="black" stroke="black" stroke-width="0.529615"/>
<path d="M46.16 2.05271C47.7172 2.05271 48.5352 2.00369 51.3195 1.75732V1.92156C47.9373 2.41404 47.7172 2.56161 47.7172 4.5477V15.7251C47.7172 22.5531 49.2431 25.3761 53.2385 25.3925C57.9734 25.409 60.3801 22.4053 60.3801 15.7251V6.91105C60.3801 3.59559 59.4362 2.3481 56.7778 1.92156V1.75732C58.0836 1.95441 59.1531 2.05271 60.4274 2.05271C61.7017 2.05271 62.7714 1.95441 64.0769 1.75732V1.92156C61.4186 2.3481 60.4746 3.59559 60.4746 6.91105V15.7249C60.4746 22.4051 58.0836 25.507 53.2385 25.5237C47.2609 25.5727 44.6023 22.5529 44.6023 15.7249V4.5477C44.6023 2.56161 44.3822 2.41404 41 1.92156V1.75732C43.7847 2.00369 44.6026 2.05271 46.16 2.05271Z" fill="black" stroke="black" stroke-width="0.529615"/>
<path d="M74.7985 0.937988L75.1173 1.10122L81.9386 21.8665C82.5464 23.7424 82.759 24.0849 85.615 24.5254V24.6884C82.926 24.4275 82.3486 24.3948 80.6169 24.3948C78.8852 24.3948 78.3382 24.4275 75.649 24.6884V24.5254C78.2317 24.0849 79.0066 23.7913 79.0066 22.943C79.0066 22.6495 78.9154 22.3069 78.7786 21.8665L76.4998 14.9665H72.565C69.9824 14.9665 68.3569 16.2224 67.354 18.9795L67.1566 19.5829C66.959 20.1867 66.7768 20.9533 66.7768 21.7037C66.7768 23.3024 67.7034 24.2157 69.557 24.5417V24.7049C68.3871 24.5256 67.3236 24.4114 66.0475 24.4114C64.7712 24.4114 63.8296 24.5256 62.5381 24.7049V24.5417C64.7408 24.2155 66.0019 22.7964 67.0654 19.5829L72.5497 2.96082L72.2457 2.06354C74.0693 1.59066 74.7076 1.03617 74.7985 0.937988ZM76.4696 14.8688L72.5958 3.12405L70.1498 10.5296C69.8762 11.3615 69.7244 12.0793 69.7244 12.699C69.7244 14.0692 70.5297 14.8685 72.5654 14.8685H76.4696V14.8688Z" fill="black" stroke="black" stroke-width="0.529615"/>
<path d="M104.128 22.7031C105.099 24.9171 106.039 25.9833 107.154 26.18V26.3438C104.351 26.0979 102.535 25.2943 101.452 23.6706C99.5565 20.8335 99.0151 19.2757 97.1993 16.0613L96.5304 14.9131L96.2757 14.4702C96.0049 14.4866 95.7181 14.5031 95.4314 14.5031H93.1858V22.5882C93.1858 24.5727 93.4089 24.7201 96.8332 25.2122V25.3763C94.0139 25.1304 93.1858 25.0812 91.6089 25.0812C90.0322 25.0812 89.2039 25.1304 86.3848 25.3763V25.2122C89.8093 24.7201 90.0322 24.5727 90.0322 22.5882V4.58136C90.0322 2.59688 89.8091 2.44943 86.3848 1.95735V1.79324C89.2039 2.0394 90.0322 2.08839 91.6089 2.08839C92.1824 2.08839 92.676 2.07222 93.1858 2.05557C94.4918 2.00634 95.8139 1.8917 97.5181 1.77683C101.07 1.5145 103.666 3.92518 103.666 7.38541C103.666 11.2393 100.64 14.093 96.3872 14.4536L96.6104 14.8636C97.2474 15.9624 98.7287 16.5527 101.532 16.8481L104.128 22.7031ZM93.1856 14.4048H95.4312C98.5053 14.4048 100.767 11.1741 100.767 7.38565C100.767 3.59721 99.3971 1.77707 97.5179 1.87529C96.1641 1.97351 94.8101 2.07222 93.1856 2.15403V14.4048Z" fill="black" stroke="black" stroke-width="0.529615"/>
<path d="M112.343 2.36832H120.301C122.199 2.36832 124.192 2.32028 125.204 1.75732L125.489 1.93409C125.236 2.72209 125.157 3.79949 125.157 4.97319C125.157 6.37218 125.236 7.4981 125.616 11.3413H125.41C124.176 4.87689 122.547 2.46486 118.766 2.46486H113.909V13.5926H116.662C118.956 13.5926 120.269 12.0971 120.68 9.04191H120.854C120.712 10.7464 120.68 12.1937 120.68 13.6409C120.68 15.0879 120.712 16.5354 120.854 18.2397H120.68C120.269 15.1845 118.956 13.6889 116.662 13.6889H113.909V24.817H118.766C122.547 24.817 124.176 22.4047 125.41 15.9403H125.616C125.236 19.7835 125.157 20.9092 125.157 22.3084C125.157 23.4823 125.236 24.5595 125.489 25.3475L125.204 25.5243C124.192 24.9615 122.199 24.9133 120.301 24.9133H112.343C110.777 24.9133 109.955 24.9615 107.154 25.2027V25.0418C110.556 24.5593 110.777 24.4147 110.777 22.4688V4.81276C110.777 2.86691 110.555 2.72233 107.154 2.23982V2.07891C109.955 2.32028 110.777 2.36832 112.343 2.36832Z" fill="black" stroke="black" stroke-width="0.529615"/>
</svg>
